<svg width="14" height="14" viewBox="0 0 14 14" fill="none" xmlns="http://www.w3.org/2000/svg">
<path d="M13.6466 11.22C13.6466 11.46 13.5933 11.7067 13.4799 11.9467C13.3666 12.1867 13.2199 12.4133 13.0266 12.6267C12.6999 12.9867 12.3399 13.2467 11.9333 13.4133C11.5333 13.58 11.0999 13.6667 10.6333 13.6667C9.95325 13.6667 9.22659 13.5067 8.45992 13.18C7.69325 12.8533 6.92659 12.4133 6.16659 11.86C5.39992 11.3 4.67325 10.68 3.97992 9.99334C3.29325 9.30001 2.67325 8.57334 2.11992 7.81334C1.57325 7.05334 1.13325 6.29334 0.813252 5.54001C0.493252 4.78001 0.333252 4.05334 0.333252 3.36001C0.333252 2.90668 0.413252 2.47334 0.573252 2.07334C0.733252 1.66668 0.986585 1.29334 1.33992 0.96001C1.76659 0.54001 2.23325 0.333344 2.72659 0.333344C2.91325 0.333344 3.09992 0.373344 3.26659 0.453344C3.43992 0.533344 3.59325 0.653344 3.71325 0.826677L5.25992 3.00668C5.37992 3.17334 5.46659 3.32668 5.52659 3.47334C5.58659 3.61334 5.61992 3.75334 5.61992 3.88001C5.61992 4.04001 5.57325 4.20001 5.47992 4.35334C5.39325 4.50668 5.26659 4.66668 5.10659 4.82668L4.59992 5.35334C4.52659 5.42668 4.49325 5.51334 4.49325 5.62001C4.49325 5.67334 4.49992 5.72001 4.51325 5.77334C4.53325 5.82668 4.55325 5.86668 4.56659 5.90668C4.68659 6.12668 4.89325 6.41334 5.18659 6.76001C5.48659 7.10668 5.80659 7.46001 6.15325 7.81334C6.51325 8.16668 6.85992 8.49334 7.21325 8.79334C7.55992 9.08668 7.84659 9.28668 8.07325 9.40668C8.10659 9.42001 8.14659 9.44001 8.19325 9.46001C8.24659 9.48001 8.29992 9.48668 8.35992 9.48668C8.47325 9.48668 8.55992 9.44668 8.63325 9.37334L9.13992 8.87334C9.30659 8.70668 9.46659 8.58001 9.61992 8.50001C9.77325 8.40668 9.92659 8.36001 10.0933 8.36001C10.2199 8.36001 10.3533 8.38668 10.4999 8.44668C10.6466 8.50668 10.7999 8.59334 10.9666 8.70668L13.1733 10.2733C13.3466 10.3933 13.4666 10.5333 13.5399 10.7C13.6066 10.8667 13.6466 11.0333 13.6466 11.22Z" fill="#292D32"/>
</svg>
