<svg width="20" height="21" viewBox="0 0 20 21" fill="none" xmlns="http://www.w3.org/2000/svg">
<path d="M9.99731 5.18721C7.15795 5.18721 4.86644 7.47876 4.86644 10.3182C4.86644 13.1576 7.15795 15.4491 9.99731 15.4491C12.8367 15.4491 15.1282 13.1576 15.1282 10.3182C15.1282 7.47876 12.8367 5.18721 9.99731 5.18721ZM9.99731 13.6529C8.16111 13.6529 6.66262 12.1544 6.66262 10.3182C6.66262 8.48194 8.16111 6.98342 9.99731 6.98342C11.8335 6.98342 13.332 8.48194 13.332 10.3182C13.332 12.1544 11.8335 13.6529 9.99731 13.6529ZM15.3383 3.78126C14.6754 3.78126 14.14 4.31662 14.14 4.97957C14.14 5.64252 14.6754 6.17788 15.3383 6.17788C16.0013 6.17788 16.5366 5.64502 16.5366 4.97957C16.5368 4.82215 16.5059 4.66624 16.4458 4.52076C16.3856 4.37529 16.2974 4.24311 16.1861 4.1318C16.0748 4.02048 15.9426 3.93222 15.7971 3.87207C15.6516 3.81192 15.4957 3.78106 15.3383 3.78126ZM19.9989 10.3182C19.9989 8.93724 20.0114 7.56882 19.9338 6.19039C19.8563 4.58931 19.4911 3.16835 18.3203 1.99755C17.147 0.824262 15.7286 0.461517 14.1275 0.383964C12.7466 0.306412 11.3782 0.31892 9.99981 0.31892C8.61891 0.31892 7.25051 0.306412 5.8721 0.383964C4.27105 0.461517 2.85012 0.826763 1.67935 1.99755C0.506076 3.17085 0.143338 4.58931 0.0657868 6.19039C-0.0117642 7.57132 0.000744099 8.93974 0.000744099 10.3182C0.000744099 11.6966 -0.0117642 13.0675 0.0657868 14.446C0.143338 16.047 0.508578 17.468 1.67935 18.6388C2.85262 19.8121 4.27105 20.1748 5.8721 20.2524C7.25301 20.3299 8.62141 20.3174 9.99981 20.3174C11.3807 20.3174 12.7491 20.3299 14.1275 20.2524C15.7286 20.1748 17.1495 19.8096 18.3203 18.6388C19.4936 17.4655 19.8563 16.047 19.9338 14.446C20.0139 13.0675 19.9989 11.6991 19.9989 10.3182ZM17.7974 16.2172C17.6148 16.6725 17.3947 17.0127 17.0419 17.3629C16.6892 17.7157 16.3515 17.9358 15.8962 18.1184C14.5803 18.6413 11.4558 18.5237 9.99731 18.5237C8.53885 18.5237 5.4118 18.6413 4.09593 18.1209C3.64064 17.9383 3.30041 17.7182 2.95018 17.3654C2.59745 17.0127 2.37731 16.675 2.19469 16.2197C1.67434 14.9013 1.79192 11.7767 1.79192 10.3182C1.79192 8.85969 1.67434 5.73258 2.19469 4.41669C2.37731 3.96138 2.59745 3.62115 2.95018 3.27091C3.30291 2.92068 3.64064 2.69803 4.09593 2.5154C5.4118 1.99505 8.53885 2.11263 9.99731 2.11263C11.4558 2.11263 14.5828 1.99505 15.8987 2.5154C16.354 2.69803 16.6942 2.91818 17.0444 3.27091C17.3972 3.62365 17.6173 3.96138 17.7999 4.41669C18.3203 5.73258 18.2027 8.85969 18.2027 10.3182C18.2027 11.7767 18.3203 14.9013 17.7974 16.2172Z" fill="#1A1919"/>
</svg>
