<svg width="273" height="43" viewBox="0 0 273 43" fill="none" xmlns="http://www.w3.org/2000/svg">
<path d="M20.2831 2.38881L27.385 2.36903C29.4753 4.94108 31.8647 7.25417 34.2213 9.57613L35.2327 10.5403L36.7331 12.0234L42.3958 17.7108C43.1689 18.4848 44.0861 19.6087 44.985 20.1976C45.5705 20.7646 46.1598 21.3278 46.7524 21.8871C47.0591 22.1569 47.1786 22.1891 47.2189 22.6132C46.3365 23.9816 43.6539 26.1693 42.3927 27.4169C38.6001 31.1688 34.7797 34.9534 31.1261 38.8399C29.8603 40.0766 28.603 41.3219 27.3542 42.5759L20.3782 42.5968C17.3344 39.3703 13.995 36.371 10.8366 33.2517C7.25686 29.7163 3.75433 25.9709 0 22.6293C3.28259 19.731 6.32317 16.3806 9.43759 13.2819C13.0517 9.68598 16.8769 6.1795 20.2831 2.38881ZM37.0329 22.5852C36.2018 23.4275 35.3855 24.276 34.5962 25.1579C31.1319 21.6924 27.7383 17.8644 23.9479 14.7579L21.2698 17.1306C24.7293 20.7034 28.2568 24.2093 31.8507 27.6463C29.3458 30.3451 26.4285 32.7693 24.1596 35.6689C22.6704 34.2864 21.2051 32.8781 19.7646 31.4447C16.8521 28.3435 13.5429 25.5968 10.7415 22.3868C11.6396 21.489 12.5133 20.5671 13.3617 19.622C13.7552 20.0265 14.1649 20.4116 14.5775 20.7966C15.4289 21.7048 16.3031 22.5913 17.1991 23.4553C18.8132 25.0717 20.4382 26.6772 22.0742 28.2715C22.6325 28.868 23.2102 29.6326 23.9709 29.9607C24.4462 29.9291 24.5218 29.7555 24.8458 29.4289L26.6151 27.6699C23.1045 24.3825 19.825 20.8374 16.3031 17.553L16.1176 17.3587C16.3688 15.8876 22.1784 11.39 23.4457 9.53921C23.6874 9.48405 23.8117 9.39757 24.0304 9.53235C25.09 10.1855 26.2087 11.7117 27.095 12.6225C29.2807 14.8681 31.5301 17.0435 33.7416 19.2623C34.8264 20.3506 35.8643 21.6018 37.0329 22.5852ZM21.9038 38.6091L25.8953 38.6543C27.7386 37.209 29.3884 35.3327 31.049 33.6796C34.7587 29.9868 38.3974 26.2062 42.1724 22.5821C36.8282 17.033 31.3698 11.5957 25.8007 6.27361L21.9173 6.27533C21.3444 6.72595 20.8405 7.27364 20.3258 7.78908C16.8483 10.8587 13.6131 14.2539 10.3675 17.5692C9.15765 18.8051 7.83647 20.5613 6.44954 21.5568L5.49549 22.5202C6.17427 23.1334 6.9432 24.0636 7.69363 24.543C10.1426 27.1933 12.8153 29.6641 15.4048 32.1777C17.5212 34.3572 19.6628 36.5586 21.9038 38.6091Z" fill="#FCBA72"/>
<path d="M23.4457 9.53921C23.6874 9.48405 23.8117 9.39757 24.0304 9.53235C25.09 10.1855 26.2087 11.7117 27.095 12.6225C29.2807 14.8681 31.5301 17.0435 33.7416 19.2623C34.8264 20.3506 35.8643 21.6018 37.0329 22.5852C36.2018 23.4275 35.3855 24.276 34.5962 25.1579C31.1319 21.6924 27.7383 17.8644 23.9479 14.7579L21.2698 17.1306C24.7293 20.7034 28.2568 24.2093 31.8507 27.6463C29.3458 30.3451 26.4285 32.7693 24.1596 35.6689C22.6704 34.2864 21.2051 32.8781 19.7646 31.4447C16.8521 28.3435 13.5429 25.5968 10.7415 22.3868C11.6396 21.489 12.5133 20.5671 13.3617 19.622C13.7552 20.0265 14.1649 20.4116 14.5775 20.7966C15.4289 21.7048 16.3031 22.5913 17.1991 23.4553C18.8132 25.0717 20.4382 26.6772 22.0742 28.2715C22.6325 28.868 23.2102 29.6326 23.9709 29.9607C24.4462 29.9291 24.5218 29.7555 24.8458 29.4289L26.6151 27.6699C23.1045 24.3825 19.825 20.8374 16.3031 17.553L16.1176 17.3587C16.3688 15.8876 22.1784 11.39 23.4457 9.53921Z" fill="#FCBA72"/>
<path d="M43.3248 3.33991C43.1139 3.10821 42.8305 2.90113 42.79 2.58748C44.507 2.32757 46.4344 2.49336 48.1743 2.49601L58.1922 2.5144C60.803 5.46181 63.7529 8.17223 66.5428 10.9532C70.4187 14.817 74.2638 18.788 78.2727 22.5096C74.161 26.3055 70.3066 30.3975 66.3813 34.3854C63.7108 37.0987 60.8549 39.7354 58.3173 42.5667C56.4944 42.5703 43.7417 42.798 43.1226 42.4103L43.0363 42.2897C44.6849 41.1711 48.2724 37.116 49.8342 35.524L62.6763 22.6266C60.2206 19.8252 57.4573 17.2141 54.8172 14.5886C51.0505 10.7739 47.219 7.02387 43.3248 3.33991ZM54.1364 36.355C53.4796 37.0649 52.7975 37.7626 52.1655 38.4942C53.3019 38.5029 56.0285 38.7746 56.9927 38.3793C57.8797 37.989 70.8228 24.6672 72.8871 22.5952C71.0738 20.5323 69.0647 18.6192 67.1299 16.6712C64.8466 14.3726 62.59 12.0284 60.2241 9.81531C59.0366 8.57969 57.8275 7.3651 56.5976 6.17202C54.8786 6.0924 53.1246 6.15488 51.4025 6.15473C52.2649 7.06033 53.1159 7.9826 54.0426 8.82276C54.4013 9.18971 54.7546 9.56585 55.1298 9.91581C57.1825 11.93 59.1928 14.1518 61.3743 16.014C62.5584 17.2449 63.7402 18.6323 65.0367 19.7347C65.855 20.6107 66.7618 21.724 67.7849 22.3629C66.6986 23.8959 65.0339 25.2928 63.7083 26.6361C60.5201 29.8669 57.2395 33.0434 54.1364 36.355Z" fill="#FCBA72"/>
<path d="M34.4928 0C36.7366 1.40889 41.2148 6.13509 43.223 8.22599L47.9104 12.9014L48.7499 13.7515L50.4009 15.3902C50.8567 15.8561 51.4058 16.3265 51.7922 16.8476C53.8141 18.6759 55.5877 20.7782 57.606 22.6094C51.2875 28.492 45.6327 35.0626 39.326 40.9574L37.575 42.5306L32.8699 42.5349C33.6272 41.7381 34.3866 40.9455 35.1047 40.1128C35.6237 39.8605 50.6005 24.3632 52.4777 22.5595C51.7838 21.7619 50.9796 21.0284 50.2307 20.2804C44.7598 15.0082 39.5159 9.52269 34.1846 4.11042C33.5046 3.26029 32.6857 2.48277 32.0741 1.58683C32.8566 1.04241 33.6392 0.425377 34.4928 0Z" fill="#FCBA72"/>
<path d="M240.149 10.6874C240.432 10.6609 240.715 10.6814 240.999 10.6929C241.208 10.8558 241.4 11.0304 241.516 11.2726C242.09 12.4682 242.115 30.3826 241.563 31.6217C241.495 31.7723 241.241 31.8204 241.088 31.8823C238.369 31.3551 228.541 17.4772 225.264 15.5656C225.213 15.5363 225.163 15.5079 225.112 15.479C225.238 15.7099 225.277 15.9418 225.31 16.1972C225.545 17.9271 225.69 29.992 225.19 31.0817C225.116 31.2401 224.924 31.432 224.816 31.5764C224.668 31.7117 224.595 31.7612 224.389 31.7953C223.941 31.8698 223.918 31.8438 223.565 31.5983C223.067 30.6509 223.094 13.6201 223.228 11.0704C223.433 10.8075 223.462 10.7439 223.798 10.6958C224.401 10.6092 225.227 10.9537 225.698 11.3157C227.259 12.5186 239.259 25.717 239.418 26.965C240.566 24.4921 239.773 17.5921 239.831 14.5925C239.857 13.2719 240.124 11.9821 240.149 10.6874Z" fill="#1A1919"/>
<path d="M96.7565 10.697C98.7168 10.5868 100.963 10.4589 102.887 10.8687C103.521 11.0034 103.881 11.0873 104.225 11.6329C104.161 11.7182 104.132 11.7682 104.056 11.8364C102.476 13.2541 97.7363 12.6637 95.6935 12.5943L95.6361 19.9705C97.7508 19.9316 101.23 19.484 103.129 20.4603C103.473 20.6374 103.56 20.6834 103.673 21.0538C103.584 21.159 103.562 21.1979 103.461 21.279C101.864 22.5687 97.6211 21.9995 95.6222 21.8941C95.6895 24.4436 95.7034 26.9945 95.6639 29.5447L95.792 29.8671C97.8272 30.4023 100.575 29.7563 102.726 29.8676C103.572 29.9115 104.39 29.9631 104.992 30.6135C105.086 31.0152 105.142 31.0552 104.945 31.4369C102.965 32.5105 94.8737 31.9183 92.2729 31.8815L92.3437 10.77C93.815 10.7813 95.2865 10.7569 96.7565 10.697Z" fill="#1A1919"/>
<path d="M185.726 10.113C188.378 9.84437 191.374 9.99557 193.792 11.2149C194.544 11.5944 195.382 12.1549 195.614 13.0086C195.834 13.8058 195.457 14.4576 195.089 15.1346C194.24 14.9664 192.384 11.9922 188.816 11.5518C186.833 11.3065 184.907 11.8786 183.358 13.1183C181.353 14.722 180.349 17.1681 180.068 19.6484C179.74 22.5511 180.143 25.8087 182.071 28.1322C183.327 29.6452 185.064 30.552 187.034 30.7388C188.134 30.8431 189.935 30.8825 190.814 30.1725C193.169 29.5677 193.898 27.8288 195.508 27.3051L195.758 27.5174C195.857 28.15 195.837 28.7 195.543 29.2836C194.895 30.56 193.276 31.1623 191.977 31.5594C188.684 32.5668 184.655 32.6224 181.568 30.9747C179.214 29.7193 177.605 27.5678 176.851 25.0546C175.943 22.0233 176.137 18.5313 177.702 15.741C179.494 12.5455 182.303 11.1028 185.726 10.113Z" fill="#1A1919"/>
<path d="M154.919 10.6878C156.93 10.6119 159.014 10.6096 161.021 10.7245C161.826 10.7707 163.105 10.8514 163.648 11.5112C163.827 11.7266 163.778 11.778 163.743 12.0495C162.508 13.1476 156.575 12.6886 154.849 12.6685C154.981 12.8229 155.049 13.0038 155.111 13.1936C155.646 14.8125 155.506 18.406 154.75 19.9134C156.437 19.8483 161.302 19.3065 162.661 20.1832C163.105 20.4699 163.132 20.6207 163.216 21.1008C163.175 21.1452 163.14 21.1924 163.097 21.2341C162.248 22.075 156.454 21.7282 155.111 21.7115C155.12 21.7414 155.128 21.7711 155.136 21.8012C155.322 22.5212 155.274 26.1821 154.928 26.7873C155.053 26.9661 155.148 27.151 155.194 27.3645C155.38 28.2261 155.272 29.2697 154.768 30.0068C157.312 29.9426 160.276 29.5748 162.78 29.9729C163.402 30.0719 163.656 30.2304 164.017 30.731L163.904 31.1301C162.38 32.4384 153.922 31.7719 151.743 31.7002C151.828 31.4963 151.904 31.2865 151.946 31.0692C152.247 29.5279 152.154 14.2613 151.935 12.1309C151.882 11.6262 151.758 11.2504 151.471 10.8284L154.919 10.6878Z" fill="#1A1919"/>
<path d="M262.186 10.4963C264.8 10.1617 269.628 10.1044 271.856 11.7061C272.424 12.115 272.785 12.6614 272.885 13.3532C272.969 13.911 272.831 14.6979 272.486 15.1478C271.292 15.1672 270.241 13.2528 269.219 12.624C267.458 11.5411 265.143 11.4298 263.163 11.8859C261.059 12.3705 259.347 13.6031 258.211 15.4165C256.619 17.9584 256.35 21.458 257.065 24.3273C257.618 26.5371 258.824 28.581 260.846 29.7617C262.733 30.864 265.124 31.0031 267.222 30.4778C269.097 30.1706 269.934 29.5442 271.357 28.3649C271.809 27.99 272.17 27.6926 272.763 27.7426C272.825 27.8386 272.885 27.9364 272.926 28.0435C273.058 28.3953 273.004 28.9254 272.845 29.2617C272.251 30.5158 270.008 31.4132 268.732 31.7945C265.68 32.7075 261.269 32.2851 258.479 30.7605C256.092 29.4556 254.422 27.2907 253.674 24.71C252.821 21.7705 253.032 18.3242 254.562 15.6344C256.257 12.6537 259.029 11.3934 262.186 10.4963Z" fill="#1A1919"/>
<path d="M134.846 10.687C138.618 10.6052 142.391 10.6228 146.162 10.7397C146.982 10.7615 147.969 10.6692 148.582 11.3081C148.681 11.772 148.671 11.777 148.439 12.1932C146.86 13.211 143.213 12.7315 141.297 12.7106C141.354 12.831 141.398 12.949 141.437 13.0763C142.054 15.1442 141.431 22.0239 141.414 24.5004C141.406 25.5001 141.615 26.5233 141.528 27.5153C141.503 27.8078 141.377 28.068 141.228 28.3175C141.361 28.5364 141.47 28.7602 141.515 29.0133C141.683 29.9796 141.52 30.8919 140.966 31.7016L137.898 31.6866C138.034 31.4981 138.131 31.3024 138.174 31.0721C138.559 29.003 138.66 13.8436 137.885 12.7039C136.332 12.6984 132.378 13.1847 131.296 12.2028C131.17 11.7484 131.077 11.4336 131.226 10.9645C132.126 10.5513 133.83 10.7159 134.846 10.687Z" fill="#1A1919"/>
<path d="M108.788 10.7887L112.032 10.7703L111.997 30.0936C114.253 29.9911 119.141 29.3951 121.105 30.2032C121.483 30.643 121.448 31.2187 121.491 31.7715C117.862 32.1891 112.561 31.8095 108.759 31.7679L108.788 10.7887Z" fill="#1A1919"/>
<path d="M198.891 10.8796C199.884 10.8029 201.148 10.5837 202.027 11.1323C202.098 11.2949 202.151 11.4531 202.182 11.6287C202.513 13.4804 202.568 29.1276 201.885 30.1258C205.181 30.2028 208.47 29.8585 211.743 29.9184L211.947 30.2479C211.883 30.7423 211.613 31.02 211.301 31.3856L211.204 31.7039C209.678 32.321 200.7 31.8846 198.492 31.8599C198.566 31.7727 198.577 31.7671 198.632 31.6776C199.425 30.3755 199.341 13.0182 198.891 10.8796Z" fill="#1A1919"/>
<path d="M214.76 10.8796C215.745 10.7067 216.825 10.778 217.826 10.7679C217.888 10.852 217.913 10.8827 217.967 10.9823C218.52 11.9928 218.533 29.7939 218.033 31.2777C217.961 31.4898 217.591 31.5964 217.389 31.698C216.612 32.0638 215.204 31.8656 214.337 31.8541C214.368 31.8135 214.401 31.7742 214.43 31.7326C215.22 30.6187 215.212 13.1234 214.76 10.8796Z" fill="#1A1919"/>
<path d="M246.554 10.8796C247.43 10.8004 248.762 10.5871 249.553 11.0283C250.131 12.4174 250.288 29.5789 249.852 31.093C249.743 31.4672 249.528 31.4918 249.197 31.6765C248.518 32.0691 247.046 31.8514 246.265 31.8288C246.975 30.7911 246.808 12.7999 246.554 10.8796Z" fill="#1A1919"/>
<path d="M124.422 10.788L127.612 10.7824L127.565 31.8171H124.36L124.422 10.788Z" fill="#1A1919"/>
</svg>
