<svg width="20" height="18" viewBox="0 0 20 18" fill="none" xmlns="http://www.w3.org/2000/svg">
<path fill-rule="evenodd" clip-rule="evenodd" d="M1.37487 7.95319C6.7432 5.61403 10.3232 4.07236 12.1149 3.32736C17.229 1.19986 18.2915 0.830691 18.9849 0.818191C19.1365 0.814858 19.4774 0.852358 19.6982 1.03152C19.884 1.18319 19.9357 1.38736 19.9599 1.53069C19.9849 1.67402 20.0149 1.99986 19.9907 2.25569C19.714 5.16736 18.5149 12.234 17.9049 15.4957C17.6465 16.8757 17.1382 17.3382 16.6465 17.384C15.5765 17.4824 14.764 16.6774 13.7282 15.9982C12.1074 14.9357 11.1924 14.274 9.61903 13.2374C7.8007 12.039 8.97903 11.3807 10.0157 10.304C10.2865 10.0224 14.999 5.73653 15.0899 5.34736C15.1015 5.29903 15.1115 5.11819 15.004 5.02236C14.8957 4.92652 14.7374 4.95902 14.6232 4.98486C14.4599 5.02236 11.8707 6.73402 6.85487 10.1199C6.11987 10.624 5.45403 10.8699 4.85737 10.8574C4.19987 10.8432 2.93487 10.4857 1.99487 10.1799C0.841533 9.80486 -0.0751337 9.60652 0.00486635 8.96986C0.046533 8.63819 0.5032 8.29903 1.37487 7.95319Z" fill="#1A1919"/>
</svg>
