<svg width="20" height="21" viewBox="0 0 20 21" fill="none" xmlns="http://www.w3.org/2000/svg">
<g clip-path="url(#clip0_232_85)">
<path d="M5.48268 7.08569C5.65685 6.53319 6.13102 5.87152 6.47435 5.70235C6.62685 5.62735 6.74018 5.61069 7.11018 5.61069C7.54518 5.61069 7.56685 5.61485 7.68018 5.72735C7.75352 5.80652 7.95352 6.23235 8.24102 6.92069C8.48435 7.51235 8.68518 8.01652 8.68518 8.04319C8.68518 8.16485 8.44102 8.55152 8.16268 8.87819C7.97102 9.10069 7.85852 9.26985 7.85852 9.33069C7.85852 9.38735 7.99768 9.64819 8.17185 9.90569C8.59352 10.5365 9.37185 11.319 9.97768 11.7199C10.451 12.0332 11.296 12.4424 11.4652 12.4424C11.5919 12.4424 11.8227 12.2157 12.2919 11.624C12.4835 11.3849 12.6535 11.2115 12.7185 11.1982C12.7752 11.1807 12.9144 11.2024 13.0269 11.2457C13.3535 11.3724 15.0027 12.1765 15.0902 12.2549C15.2594 12.4115 15.121 13.3082 14.8677 13.6732C14.481 14.2399 13.376 14.7224 12.6485 14.6482C12.1185 14.5915 10.8652 14.1782 10.051 13.7907C9.00685 13.2907 7.90602 12.3765 7.01435 11.259C6.50518 10.6232 5.99185 9.84902 5.77018 9.38735C5.47018 8.76152 5.36102 8.27819 5.39102 7.72069C5.40435 7.48152 5.44768 7.19485 5.48268 7.08569Z" fill="#1A1919"/>
<path fill-rule="evenodd" clip-rule="evenodd" d="M0.505133 8.23474C1.31847 4.06058 4.6468 0.951409 8.9243 0.368075C9.5118 0.284742 11.161 0.311408 11.731 0.406408C12.3268 0.511408 13.1143 0.715575 13.5976 0.898075C16.791 2.08641 19.1501 4.83141 19.8193 8.13391C20.111 9.57474 20.046 11.2631 19.6501 12.6814C18.706 16.0397 15.9643 18.6856 12.5576 19.5297C10.3385 20.0781 8.00597 19.8381 5.90513 18.8547L5.39097 18.6114L2.70263 19.4689C1.22763 19.9389 0.00846667 20.3131 0.000133333 20.3039C-0.0082 20.2956 0.375133 19.1247 0.857633 17.7106L1.73263 15.1306L1.3793 14.4306C0.400133 12.4589 0.100133 10.3264 0.5043 8.23308L0.505133 8.23474ZM18.1485 7.89474C17.2918 4.76141 14.5676 2.37308 11.361 1.93808C9.6118 1.70308 7.96263 1.96891 6.4443 2.73474C2.76347 4.59641 1.0093 8.85224 2.33597 12.6989C2.50597 13.1906 2.96263 14.1172 3.24597 14.5431L3.4718 14.8831L2.96763 16.3622C2.79237 16.8646 2.62402 17.3694 2.46263 17.8764C2.46263 17.8981 3.16263 17.6897 4.01597 17.4197C4.54208 17.2489 5.06988 17.0834 5.5993 16.9231C5.61763 16.9231 5.7868 17.0147 5.9743 17.1231C7.99763 18.3289 10.521 18.5897 12.7968 17.8331C14.1089 17.3966 15.2906 16.6381 16.2339 15.6271C17.1773 14.6161 17.8521 13.3847 18.1968 12.0456C18.531 10.6803 18.5144 9.25269 18.1485 7.89558V7.89474Z" fill="#1A1919"/>
</g>
<defs>
<clipPath id="clip0_232_85">
<rect width="20" height="20" fill="white" transform="translate(0 0.318176)"/>
</clipPath>
</defs>
</svg>
